PathFileType	4	(X/Y/Z)	/Users/itak/Documents/Research/Walk-IL/dataset/trc/00433_00167.trc
DataRate	CameraRate	NumFrames	NumMarkers	Units	OrigDataRate	OrigDataStartFrame	OrigNumFrames
100.000000	100.000000	4	53	mm	100.000000	384	615
Frame#	Time	RPSI			LPSI			L3			STRN			T10			C7			CLAV			RBAK			LBAK			LSHO			LUPA			LAEL			LAOL			LWTS			LWPS			LFRA			LIFD			LHPS			LHTS			RSHO			RUPA			RAEL			RAOL			RWTS			RWPS			RFRA			RIFD			RHTS			RHPS			RBHD			LFHD			RFHD			LBHD			LHIP			RHIP			RASI			LASI			LKNE			LTHI			LANK			LTIP			LTOE			LMT1			LMT5			LHEE			RKNE			RTHI			RANK			RTIP			RTOE			RMT1			RMT5			RHEE			
		X1	Y1	Z1	X2	Y2	Z2	X3	Y3	Z3	X4	Y4	Z4	X5	Y5	Z5	X6	Y6	Z6	X7	Y7	Z7	X8	Y8	Z8	X9	Y9	Z9	X10	Y10	Z10	X11	Y11	Z11	X12	Y12	Z12	X13	Y13	Z13	X14	Y14	Z14	X15	Y15	Z15	X16	Y16	Z16	X17	Y17	Z17	X18	Y18	Z18	X19	Y19	Z19	X20	Y20	Z20	X21	Y21	Z21	X22	Y22	Z22	X23	Y23	Z23	X24	Y24	Z24	X25	Y25	Z25	X26	Y26	Z26	X27	Y27	Z27	X28	Y28	Z28	X29	Y29	Z29	X30	Y30	Z30	X31	Y31	Z31	X32	Y32	Z32	X33	Y33	Z33	X34	Y34	Z34	X35	Y35	Z35	X36	Y36	Z36	X37	Y37	Z37	X38	Y38	Z38	X39	Y39	Z39	X40	Y40	Z40	X41	Y41	Z41	X42	Y42	Z42	X43	Y43	Z43	X44	Y44	Z44	X45	Y45	Z45	X46	Y46	Z46	X47	Y47	Z47	X48	Y48	Z48	X49	Y49	Z49	X50	Y50	Z50	X51	Y51	Z51	X52	Y52	Z52	X53	Y53	Z53	

385	3.84	352.7803649902344	931.5986328125	468.7554321289062	424.0399169921875	940.9074096679688	346.7736511230469	392.8829650878906	1027.84130859375	425.8818359375	625.6840209960938	1215.094848632812	572.354736328125	379.2319946289062	1151.203125	420.3650512695312	423.5304565429688	1416.517333984375	477.8727111816406	592.3958740234375	1329.568237304688	557.4619750976562	324.1716003417969	1291.078857421875	516.2228393554688	448.0235900878906	1376.81103515625	375.4032897949219	576.9038696289062	1397.924926757812	360.2276611328125	608.644775390625	1285.149169921875	259.3932189941406	630.86083984375	1072.64453125	218.8978576660156	532.4168701171875	1060.367553710938	247.9026336669922	676.8034057617188	859.3364868164062	266.779541015625	653.6068725585938	853.9232177734375	196.5574035644531	648.529052734375	984.7018432617188	208.4360046386719	661.7603759765625	691.2008056640625	244.2736968994141	649.6583862304688	772.665283203125	191.0147857666016	684.42236328125	767.801025390625	252.9960632324219	399.0590515136719	1374.302856445312	648.2929077148438	340.3370361328125	1311.252319335938	697.1787109375	285.1820068359375	1027.097778320312	715.78125	267.2920532226562	1019.623352050781	650.1142578125	365.9280090332031	810.7337646484375	719.593505859375	278.4857482910156	807.4747924804688	724.0478515625	275.5329895019531	968.9447631835938	719.2473754882812	341.00634765625	654.5574340820312	701.66064453125	357.2493286132812	709.6115112304688	722.693603515625	281.4546508789062	718.9132080078125	719.8973999023438	461.2821960449219	1613.12939453125	604.6422729492188	652.7348022460938	1621.62353515625	527.6856079101562	593.9424438476562	1620.423828125	644.202880859375	527.87255859375	1621.172119140625	439.7188415527344	584.9027709960938	827.5217895507812	295.5554504394531	402.8450317382812	831.8831787109375	655.3744506835938	517.3406372070312	878.5751342773438	636.9061889648438	641.3806762695312	857.3674926757812	414.9647827148438	466.6637573242188	418.5982360839844	274.1231689453125	541.6679077148438	560.524658203125	297.4684753417969	209.3114318847656	111.3572311401367	118.8847808837891	387.4566955566406	291.4851379394531	215.0837249755859	291.3823852539062	36.36275100708008	306.3513793945312	236.2269287109375	56.01605987548828	282.2915649414062	304.22705078125	40.96121978759766	195.2086029052734	153.5136566162109	156.5044708251953	126.0577926635742	552.9487915039062	457.2558898925781	679.522216796875	468.7303771972656	707.8811645507812	695.9025268554688	592.9791870117188	37.10099029541016	681.8232421875	576.9937744140625	312.5143127441406	699.4957885742188	809.5220947265625	41.32963180541992	731.8923950195312	764.1710815429688	43.55579376220703	673.0827026367188	702.8710327148438	43.05030822753906	759.6395874023438	552.4060668945312	29.61536979675293	612.2960815429688	
386	3.85	360.2999877929688	934.316162109375	475.2739562988281	431.7528991699219	943.41064453125	353.3616027832031	400.4099731445312	1030.597900390625	432.9046020507812	632.9769897460938	1217.434448242188	579.7757568359375	386.8346252441406	1153.933959960938	427.4453430175781	430.986572265625	1418.984741210938	485.1162109375	599.785400390625	1331.937255859375	564.9741821289062	331.6059265136719	1293.553833007812	523.344970703125	455.7355346679688	1379.594970703125	382.7127990722656	584.710205078125	1400.834594726562	368.069091796875	616.6409912109375	1288.750854492188	266.7787780761719	638.1825561523438	1076.410278320312	225.0220642089844	539.6315307617188	1064.407592773438	253.7620086669922	683.6357421875	862.6937255859375	272.02490234375	660.6541748046875	857.5809326171875	201.7190704345703	655.7425537109375	988.4794921875	214.1331329345703	667.49267578125	694.5947875976562	249.0706481933594	656.13330078125	776.2586669921875	195.9814300537109	690.7572631835938	771.02001953125	258.0578308105469	406.3384704589844	1376.841918945312	655.416015625	347.646484375	1313.891967773438	704.43896484375	293.4706115722656	1029.443725585938	723.88525390625	275.3696594238281	1021.432922363281	658.3491821289062	376.7636108398438	814.0283203125	728.6182250976562	289.4147338867188	809.7026977539062	733.382568359375	284.4752197265625	971.20068359375	727.7000122070312	353.7227478027344	657.4927978515625	711.0379028320312	369.2991027832031	712.77001953125	731.8889770507812	293.4112243652344	721.1310424804688	729.5350952148438	468.2718200683594	1615.27392578125	612.05029296875	659.694580078125	1624.2607421875	535.0507202148438	600.9356079101562	1622.92236328125	651.5812377929688	534.8077392578125	1623.470825195312	447.1093444824219	592.675537109375	829.6246948242188	302.6239624023438	409.4070129394531	833.5697631835938	661.5006103515625	524.1324462890625	880.0043334960938	643.708740234375	648.764892578125	859.821533203125	422.0958251953125	478.5340270996094	419.4892272949219	280.2637023925781	552.4494018554688	562.0362548828125	304.2201843261719	215.1272277832031	118.1653213500977	121.564826965332	397.2626953125	294.3435363769531	219.4195404052734	292.0830688476562	36.05987548828125	306.08984375	238.9793243408203	57.78931045532227	283.2540283203125	306.1608581542969	41.44378280639648	196.0044250488281	161.5452575683594	165.5580902099609	130.3058929443359	556.5114135742188	457.6319580078125	683.0846557617188	474.2644958496094	708.7817993164062	701.1646728515625	593.0224609375	37.13584518432617	681.8338623046875	579.1561889648438	312.3699645996094	701.7572021484375	809.6114501953125	40.79476547241211	731.662841796875	764.2247314453125	43.62310409545898	673.0023803710938	702.940673828125	43.11190414428711	759.7595825195312	552.3536987304688	29.61520576477051	612.3599243164062	
387	3.86	367.6735534667969	936.935546875	481.8450622558594	439.1639099121094	945.7284545898438	359.9048767089844	407.7279357910156	1033.228271484375	439.9404296875	640.2058715820312	1219.693725585938	586.9987182617188	394.259033203125	1156.548828125	434.5391540527344	438.3316955566406	1421.357543945312	492.2483215332031	607.0947265625	1334.223266601562	572.3114624023438	338.9416198730469	1295.925415039062	530.4114379882812	463.2778015136719	1382.264526367188	389.8885498046875	592.3394775390625	1403.614013671875	375.7356567382812	624.5674438476562	1292.21142578125	274.0538635253906	645.7402954101562	1080.067260742188	231.1051635742188	547.035888671875	1068.28564453125	259.3059997558594	690.7377319335938	866.003662109375	277.4819641113281	668.224365234375	861.1478271484375	207.0322113037109	663.2943725585938	992.1656494140625	219.8867950439453	673.5673217773438	697.9177856445312	254.1449890136719	663.1824951171875	779.74658203125	201.1392059326172	697.4003295898438	774.1669921875	263.43017578125	413.5641479492188	1379.305297851562	662.4359130859375	354.8920288085938	1316.47412109375	711.6052856445312	301.6438598632812	1031.760620117188	732.0344848632812	283.3391723632812	1023.133972167969	666.6505126953125	387.7395629882812	817.465576171875	737.8765258789062	300.517333984375	811.947265625	743.0038452148438	293.3621826171875	973.4298706054688	736.2615356445312	366.8167114257812	660.5486450195312	720.8914794921875	381.6321411132812	716.0950927734375	741.473388671875	305.667236328125	723.3882446289062	739.583251953125	475.1900329589844	1617.362548828125	619.2952880859375	666.5860595703125	1626.811645507812	542.253662109375	607.8544311523438	1625.355346679688	658.7979736328125	541.6715087890625	1625.689086914062	454.333740234375	600.1886596679688	831.625732421875	309.6071166992188	415.8863830566406	835.1358032226562	667.5733032226562	530.8883666992188	881.2655639648438	650.4187622070312	656.0130004882812	862.2382202148438	429.0505065917969	491.0812377929688	420.1419982910156	286.5624694824219	563.6404418945312	563.4036865234375	310.9308166503906	221.4588012695312	125.3418579101562	124.6857299804688	407.6325073242188	297.0484313964844	224.0482025146484	293.1709289550781	35.5945930480957	305.9626159667969	242.1106109619141	59.88264083862305	284.4567565917969	308.3362121582031	42.20978164672852	196.9835510253906	170.1339111328125	174.7869110107422	135.1236877441406	559.6220092773438	457.8095703125	686.4716796875	479.5634460449219	709.5167236328125	706.330322265625	593.0305786132812	37.12635803222656	681.8607177734375	580.9746704101562	312.1181335449219	703.9127807617188	809.6146850585938	40.4627571105957	731.5594482421875	764.2595825195312	43.77513122558594	673.01806640625	702.939697265625	43.1026725769043	759.934814453125	552.3115844726562	29.58841133117676	612.4015502929688	
388	3.87	374.891845703125	939.444580078125	488.4109497070312	446.2837524414062	947.809814453125	366.3540649414062	414.8471374511719	1035.702392578125	446.958251953125	647.3672485351562	1221.839965820312	594.0071411132812	401.4844970703125	1159.017211914062	441.6162414550781	445.5562438964844	1423.609130859375	499.2731628417969	614.3215942382812	1336.395263671875	579.4578857421875	346.1717224121094	1298.166137695312	537.4308471679688	470.6231079101562	1384.787475585938	396.931396484375	599.7612915039062	1406.22705078125	383.2042846679688	632.3641357421875	1295.484008789062	281.1904296875	653.4966430664062	1083.573852539062	237.1276550292969	554.6045532226562	1071.943359375	264.5393371582031	698.1047973632812	869.2353515625	283.1454772949219	676.3106689453125	864.5929565429688	212.4927825927734	671.1596069335938	995.7198486328125	225.6851959228516	680.052001953125	701.13818359375	259.4730224609375	670.8388671875	783.1018676757812	206.4752197265625	704.3800659179688	777.2218627929688	269.0985412597656	420.7430725097656	1381.654663085938	669.3615112304688	362.0879821777344	1318.95556640625	718.6859741210938	309.6999816894531	1034.015502929688	740.21923828125	291.2016296386719	1024.698852539062	675.0079345703125	398.8263854980469	821.0206909179688	747.350830078125	311.7626953125	814.1897583007812	752.890625	302.1863403320312	975.601318359375	744.916015625	380.2481384277344	663.71142578125	731.2423706054688	394.2144165039062	719.5769653320312	751.4603881835938	318.1897583007812	725.6793823242188	750.0264282226562	482.0325317382812	1619.370361328125	626.3734130859375	673.40234375	1629.250732421875	549.2865600585938	614.6947631835938	1627.698974609375	665.8494873046875	548.4569091796875	1627.80078125	461.3865051269531	607.453857421875	833.4478149414062	316.5013122558594	422.279541015625	836.61669921875	673.5745239257812	537.585693359375	882.4031982421875	657.0093994140625	663.1257934570312	864.5618286132812	435.8244323730469	504.2708435058594	420.5386657714844	293.0461730957031	575.2152709960938	564.5857543945312	317.624267578125	228.3465881347656	132.8660736083984	128.2805633544922	418.5540771484375	299.5607299804688	229.0214996337891	294.7714233398438	34.97379684448242	306.0296020507812	245.7193756103516	62.32522964477539	285.9650573730469	310.8217468261719	43.31693649291992	198.1863403320312	179.2899475097656	184.1466522216797	140.5027008056641	562.388916015625	457.8561706542969	689.7175903320312	484.7002258300781	710.1558227539062	711.4063720703125	593.0088500976562	37.08218002319336	681.9083862304688	582.548095703125	311.8070983886719	705.9973754882812	809.5609130859375	40.27406311035156	731.5598754882812	764.2837524414062	43.97332000732422	673.1129150390625	702.8880004882812	43.02280426025391	760.1571655273438	552.2794799804688	29.54500007629395	612.4349365234375	
